<?xml version="1.0" encoding="UTF-8"?>
<svg id="Layer_2" data-name="Layer 2" xmlns="http://www.w3.org/2000/svg" viewBox="0 0 51.98 51.72">
  <defs>
    <style>
      .cls-1, .cls-2, .cls-3, .cls-4, .cls-5, .cls-6, .cls-7, .cls-8, .cls-9 {
        font-family: CabinetGroteskVariable-Bold, 'Cabinet Grotesk Variable';
        font-variation-settings: 'wght' 700;
      }

      .cls-1, .cls-10 {
        letter-spacing: .08em;
      }

      .cls-2 {
        letter-spacing: .07em;
      }

      .cls-3 {
        letter-spacing: .06em;
      }

      .cls-4 {
        letter-spacing: .05em;
      }

      .cls-5, .cls-11 {
        letter-spacing: .05em;
      }

      .cls-6 {
        letter-spacing: .04em;
      }

      .cls-12 {
        font-size: 2.45px;
        font-weight: 700;
      }

      .cls-12, .cls-13 {
        fill: #fff;
      }

      .cls-14 {
        letter-spacing: .07em;
      }

      .cls-14, .cls-15, .cls-16 {
        font-family: CabinetGroteskVariable-Extrabold, 'Cabinet Grotesk Variable';
        font-variation-settings: 'wght' 800;
      }

      .cls-15, .cls-7, .cls-17 {
        letter-spacing: .08em;
      }

      .cls-16 {
        letter-spacing: .08em;
      }

      .cls-8, .cls-18 {
        letter-spacing: -.02em;
      }

      .cls-19 {
        fill: none;
        stroke: #fff;
        stroke-linejoin: round;
        stroke-width: .15px;
      }

      .cls-20 {
        letter-spacing: .1em;
      }

      .cls-21 {
        letter-spacing: .07em;
      }

      .cls-22 {
        letter-spacing: .02em;
      }

      .cls-23 {
        letter-spacing: .05em;
      }

      .cls-24 {
        letter-spacing: .05em;
      }
    </style>
  </defs>
  <g id="Layer_1-2" data-name="Layer 1">
    <g>
      <g>
        <path class="cls-13" d="M29.79,0c-5.24,0-9.07,4.32-9.07,9.65s3.84,9.65,9.07,9.65,9.03-4.32,9.03-9.65S34.98,0,29.79,0ZM29.79,19.03c-3.16,0-5.36-4.22-5.36-9.38S26.62.27,29.79.27s5.32,4.22,5.32,9.38-2.2,9.38-5.32,9.38Z"/>
        <g>
          <path class="cls-19" d="M10.56,27.95h-5.29v6c0,1.04.29,2.05.84,2.93h.01l.03.06c.36.56.82,1.04,1.36,1.44h.01c.11.09.23.17.36.25l1.12.69h.03v.02l1.51.92v.02h.01s.02,0,.02,0v-.02l1.53-.94h.01l1.11-.69c.13-.08.25-.16.37-.25h.01c.54-.4.99-.88,1.35-1.44l.04-.06c.28-.44.49-.91.63-1.4.14-.5.22-1.01.22-1.53v-6h-5.28ZM6.11,36.8c-.52-.85-.8-1.84-.8-2.85v-4.18h.8v7.03ZM7.51,38.33c-.54-.4-1-.89-1.36-1.46v-7.1h.6v5.45l.76.9v2.21ZM9,39.27l-1.1-.67c-.12-.08-.24-.16-.35-.24v-2.24l.76-.89v-5.46h.69v9.5ZM10.53,36.17v4.04l-1.5-.92v-9.52h.75v5.45l.75.89v.07s0-.01,0-.01ZM12.07,39.29l-1.49.92v-4.04h.01s-.01-.06-.01-.06l.74-.88h.01v-5.46h.74v9.52ZM13.56,38.36c-.11.08-.23.16-.36.24l-1.09.67v-9.5h.69v5.45l.76.9v2.24ZM14.95,36.87c-.36.57-.81,1.06-1.35,1.46v-2.21l.75-.89h.01v-5.46h.59v7.1ZM15.8,33.95c0,1.01-.28,2-.81,2.85v-7.03h.81v4.18Z"/>
          <path d="M10.56,27.95h-5.29v6c0,1.04.29,2.05.84,2.93h.01l.03.06c.36.56.82,1.04,1.36,1.44h.01c.11.09.23.17.36.25l1.12.69h.03v.02l1.51.92v.02h.01s.02,0,.02,0v-.02l1.53-.94h.01l1.11-.69c.13-.08.25-.16.37-.25h.01c.54-.4.99-.88,1.35-1.44l.04-.06c.28-.44.49-.91.63-1.4.14-.5.22-1.01.22-1.53v-6h-5.28ZM6.11,36.8c-.52-.85-.8-1.84-.8-2.85v-4.18h.8v7.03ZM7.51,38.33c-.54-.4-1-.89-1.36-1.46v-7.1h.6v5.45l.76.9v2.21ZM9,39.27l-1.1-.67c-.12-.08-.24-.16-.35-.24v-2.24l.76-.89v-5.46h.69v9.5ZM10.53,36.17v4.04l-1.5-.92v-9.52h.75v5.45l.75.89v.07s0-.01,0-.01ZM12.07,39.29l-1.49.92v-4.04h.01s-.01-.06-.01-.06l.74-.88h.01v-5.46h.74v9.52ZM13.56,38.36c-.11.08-.23.16-.36.24l-1.09.67v-9.5h.69v5.45l.76.9v2.24ZM14.95,36.87c-.36.57-.81,1.06-1.35,1.46v-2.21l.75-.89h.01v-5.46h.59v7.1ZM15.8,33.95c0,1.01-.28,2-.81,2.85v-7.03h.81v4.18Z"/>
        </g>
        <g>
          <path class="cls-13" d="M6.1,36.78c-.51-.85-.79-1.82-.79-2.82v-4.18h.79s0,7,0,7Z"/>
          <path d="M6.1,29.79v6.96c-.5-.84-.77-1.81-.77-2.8v-4.17h.77M6.11,29.77h-.8v4.18c0,1.01.28,2,.8,2.85v-7.03h0Z"/>
        </g>
        <g>
          <path class="cls-13" d="M7.5,38.32c-.54-.4-.99-.89-1.35-1.45v-7.1s.59,0,.59,0v5.44s.75.9.75.9v2.19Z"/>
          <path d="M6.73,29.79v5.43s0,0,0,0l.76.9v2.17c-.53-.4-.98-.88-1.33-1.43v-7.08h.57M6.75,29.77h-.6v7.1c.36.57.82,1.06,1.36,1.46v-2.21l-.76-.9v-5.45h0Z"/>
        </g>
        <g>
          <path class="cls-13" d="M7.9,38.6c-.12-.08-.24-.16-.35-.24v-2.23s.76-.89.76-.89v-5.46s.68,0,.68,0v9.48s-1.1-.66-1.1-.66Z"/>
          <path d="M8.98,29.79v9.46l-1.08-.66c-.12-.08-.24-.16-.34-.24v-2.23l.76-.89s0,0,0,0v-5.45h.66M9,29.77h-.69v5.46l-.76.89v2.24c.11.08.23.16.35.24l1.1.67v-9.5h0Z"/>
        </g>
        <g>
          <polygon class="cls-13" points="9.03 39.29 9.04 29.77 9.78 29.78 9.77 35.22 10.52 36.12 10.52 40.2 9.03 39.29"/>
          <path d="M9.76,29.79v5.43s0,0,0,0l.75.88v.06s0,.01,0,.02c0,0,0,0,0,0v3.99l-1.47-.9v-9.5h.72M9.78,29.77h-.75v9.52l1.5.92v-4.04h-.01s.01-.06.01-.06l-.75-.89v-5.45h0Z"/>
        </g>
        <g>
          <polygon class="cls-13" points="10.59 36.17 11.33 35.24 11.34 29.77 12.07 29.78 12.06 39.29 10.59 40.2 10.59 36.17"/>
          <path d="M12.05,29.79v9.5l-1.46.9v-3.99s0,0,0,0c0,0,0,0,0-.02v-.06s.73-.87.73-.87h.01s0-.02,0-.02v-5.43h.71M12.07,29.77h-.74v5.45h-.01s-.74.89-.74.89v.07s0-.01,0-.01v4.04l1.49-.92v-9.52h0Z"/>
        </g>
        <g>
          <path class="cls-13" d="M12.12,29.77h.68s0,5.45,0,5.45l.76.9v2.23c-.11.07-.23.15-.36.23l-1.08.66v-9.49Z"/>
          <path d="M12.78,29.79v5.43s0,0,0,0l.76.9v2.23c-.11.08-.23.16-.35.23l-1.07.66v-9.46h.66M12.8,29.77h-.69v9.5l1.09-.67c.13-.08.25-.16.36-.24v-2.24l-.76-.9v-5.45h0Z"/>
        </g>
        <g>
          <path class="cls-13" d="M13.61,36.12l.75-.89v-5.46s.59,0,.59,0v7.09c-.37.56-.81,1.05-1.34,1.44v-2.19Z"/>
          <path d="M14.93,29.79v7.08c-.36.56-.8,1.04-1.32,1.43v-2.17l.75-.88h.01s0-.02,0-.02v-5.43h.56M14.95,29.77h-.59v5.45h-.01s-.75.9-.75.9v2.21c.54-.4.99-.89,1.35-1.46v-7.1h0Z"/>
        </g>
        <g>
          <path class="cls-13" d="M15,29.77h.8s0,4.18,0,4.18c0,1-.27,1.98-.8,2.82v-7Z"/>
          <path d="M15.78,29.79v4.17c0,.99-.27,1.96-.78,2.8v-6.96h.78M15.8,29.77h-.81v7.03c.53-.85.81-1.84.81-2.85v-4.18h0Z"/>
        </g>
        <path class="cls-13" d="M22.68,21.65l-1.23,2.92H7.44l-7.44-.03,4.24-2.52,3.02-1.95c4.2-2.72,9.59-7,8.74-12.64-.15-.97-.55-1.9-1.23-2.58-.6-.58-1.4-.8-2.22-.88-2.28-.2-4.37.83-5.57,2.8-1.43,2.33-1.58,6.52,1.2,7.49.87.3,1.73.3,2.62.15.62-.1,1.05-.45,1.65-.82-1.18,2.15-4.42,3.59-6.64,2.27-.9-.55-1.4-1.5-1.55-2.52-.23-1.47.05-2.88.67-4.24,1.12-2.47,3.03-4.47,5.45-5.7,1.6-.82,3.35-1.05,5.09-.67.77.15,1.47.52,1.98,1.08,1.87,1.97,1.52,5.1.33,7.34-2.47,4.69-8.64,8.44-13.24,11.04l6.24.02c1.02,0,10.59-.12,11.54-.38.13-.05.25-.1.37-.17Z"/>
        <path class="cls-13" d="M46.86,26.03c1.27,2.28.84,4.98-.03,7.35-1.37,3.69-4.24,7.75-7.86,9.49-1.66.8-3.5,1.08-5.28.54-1.28-.39-2.24-1.35-2.87-2.52-1.6-2.97-1.15-7.1-.16-10.24.62-2.01,1.49-3.84,2.63-5.63,3.04-4.8,7.42-8.61,12.6-10.99,1.93-.89,3.93-1.65,6.1-1.9-2.96,1-5.67,2.03-8.16,3.83-1.71,1.23-3.29,2.51-4.71,4.09-3.44,3.84-6.07,8.69-6.42,13.9-.11,1.65-.02,3.19.53,4.73.43,1.2,1.21,2.32,2.43,2.83,2.19.9,4.61.29,6.31-1.31,2.58-2.44,3.48-6.39,3.13-9.81-.08-.82-.35-1.58-.7-2.31-1.34-2.81-4.76-2.47-6.93-.97-1.39.81-2.12,2.11-3.21,3.42,1.04-2.57,3.18-4.63,5.6-5.88,1.09-.56,2.22-.78,3.42-.76,1.54.02,2.85.81,3.6,2.16Z"/>
        <path class="cls-13" d="M31.1,20.43l-3.33,7.32-10.08,23.22-3.45.06,10.61-24.35c.25-.61.36-1.28.36-1.88,0-.67-.25-1.13-.67-1.44,1.63-.4,3.14-1,4.65-1.82.65-.36,1.28-.71,1.9-1.11Z"/>
      </g>
      <text class="cls-12" transform="translate(22.29 48.12)"><tspan class="cls-9"><tspan class="cls-10" x="0" y="0">O</tspan><tspan class="cls-11" x="2.02" y="0">L</tspan><tspan class="cls-17" x="3.47" y="0">D </tspan><tspan class="cls-23" x="6.03" y="0">A</tspan><tspan class="cls-21" x="7.78" y="0">C</tspan><tspan class="cls-20" x="9.65" y="0">HI</tspan><tspan class="cls-10" x="12.39" y="0">M</tspan><tspan class="cls-22" x="14.61" y="0">O</tspan><tspan class="cls-18" x="16.48" y="0">T</tspan><tspan class="cls-24" x="17.8" y="0">A</tspan><tspan class="cls-17" x="19.56" y="0">N</tspan></tspan><tspan class="cls-5" x="0" y="2.94">A</tspan><tspan class="cls-2" x="1.75" y="2.94">S</tspan><tspan class="cls-3" x="3.44" y="2.94">S</tspan><tspan class="cls-1" x="5.1" y="2.94">O</tspan><tspan class="cls-4" x="7.12" y="2.94">C</tspan><tspan class="cls-8" x="8.96" y="2.94">A</tspan><tspan class="cls-6" x="10.55" y="2.94">T</tspan><tspan class="cls-1" x="12.02" y="2.94">IO</tspan><tspan class="cls-7" x="14.82" y="2.94">N</tspan><tspan class="cls-16" x="16.68" y="2.94"> </tspan><tspan class="cls-14" x="17.34" y="2.94">2</tspan><tspan class="cls-15" x="19.02" y="2.94">016</tspan></text>
    </g>
  </g>
</svg>