<?xml version="1.0" encoding="UTF-8"?>
<svg id="Layer_2" data-name="Layer 2" xmlns="http://www.w3.org/2000/svg" viewBox="0 0 51.98 51.72">
  <defs>
    <style>
      .cls-1, .cls-2, .cls-3, .cls-4, .cls-5, .cls-6, .cls-7, .cls-8, .cls-9 {
        font-family: CabinetGroteskVariable-Bold, 'Cabinet Grotesk Variable';
        font-variation-settings: 'wght' 700;
      }

      .cls-1, .cls-10 {
        letter-spacing: .08em;
      }

      .cls-2 {
        letter-spacing: .07em;
      }

      .cls-3 {
        letter-spacing: .06em;
      }

      .cls-4 {
        letter-spacing: .05em;
      }

      .cls-5, .cls-11 {
        letter-spacing: .05em;
      }

      .cls-6 {
        letter-spacing: .04em;
      }

      .cls-12 {
        letter-spacing: .07em;
      }

      .cls-12, .cls-13, .cls-14 {
        font-family: CabinetGroteskVariable-Extrabold, 'Cabinet Grotesk Variable';
        font-variation-settings: 'wght' 800;
      }

      .cls-13, .cls-7, .cls-15 {
        letter-spacing: .08em;
      }

      .cls-14 {
        letter-spacing: .08em;
      }

      .cls-8, .cls-16 {
        letter-spacing: -.02em;
      }

      .cls-17 {
        font-size: 2.45px;
        font-weight: 700;
      }

      .cls-18 {
        letter-spacing: .1em;
      }

      .cls-19 {
        letter-spacing: .07em;
      }

      .cls-20 {
        letter-spacing: .02em;
      }

      .cls-21 {
        letter-spacing: .05em;
      }

      .cls-22 {
        letter-spacing: .05em;
      }
    </style>
  </defs>
  <g id="Layer_1-2" data-name="Layer 1">
    <g>
      <g>
        <path d="M29.79,0c-5.24,0-9.07,4.32-9.07,9.65s3.84,9.65,9.07,9.65,9.03-4.32,9.03-9.65S34.98,0,29.79,0ZM29.79,19.03c-3.16,0-5.36-4.22-5.36-9.38S26.62.27,29.79.27s5.32,4.22,5.32,9.38-2.2,9.38-5.32,9.38Z"/>
        <path d="M10.56,27.95v-.03.02s-.01-.02-.01-.02v.03h-5.28v6.01c0,1.04.29,2.05.84,2.92h0s.04.06.04.06h0c.36.56.82,1.04,1.36,1.44h0s0,0,0,0c.11.08.23.16.37.25l1.11.68.03.02h0s1.5.93,1.5.93v.02h.02s.02,0,.02,0v-.02l1.53-.94h0s1.11-.69,1.11-.69c.13-.08.25-.16.37-.25h0c.54-.4.99-.89,1.36-1.45h0s.04-.05.04-.05h0c.28-.44.49-.91.63-1.41.14-.49.22-1,.22-1.52v-6.01h-5.28ZM6.11,36.81c-.53-.86-.8-1.84-.8-2.85v-4.18h.8v7.03ZM7.51,38.33c-.54-.4-1-.89-1.36-1.46v-7.1h.59v5.45l.76.9v2.2ZM8.99,39.27l-1.09-.67c-.13-.08-.25-.16-.36-.24v-2.23l.76-.9h0v-5.46h.68v9.5ZM10.53,40.22l-1.5-.92v-9.52h.74v5.45l.75.89v.08s0-.02,0-.02v4.04ZM12.07,39.3l-1.5.92v-4.04.02s0-.08,0-.08l.75-.88h0v-5.46h.74v9.52ZM13.56,38.36c-.11.08-.23.16-.36.24l-1.09.67v-9.5h.68v5.45l.76.9v2.23ZM14.95,36.87c-.36.57-.82,1.06-1.36,1.46v-2.2l.76-.9h0v-5.46h.59v7.1ZM15.8,33.96c0,1.01-.28,1.99-.8,2.85v-7.03h.8v4.18Z"/>
        <path d="M22.68,21.65l-1.23,2.92H7.44l-7.44-.03,4.24-2.52,3.02-1.95c4.2-2.72,9.59-7,8.74-12.64-.15-.97-.55-1.9-1.23-2.58-.6-.58-1.4-.8-2.22-.88-2.28-.2-4.37.83-5.57,2.8-1.43,2.33-1.58,6.52,1.2,7.49.87.3,1.73.3,2.62.15.62-.1,1.05-.45,1.65-.82-1.18,2.15-4.42,3.59-6.64,2.27-.9-.55-1.4-1.5-1.55-2.52-.23-1.47.05-2.88.67-4.24,1.12-2.47,3.03-4.47,5.45-5.7,1.6-.82,3.35-1.05,5.09-.67.77.15,1.47.52,1.98,1.08,1.87,1.97,1.52,5.1.33,7.34-2.47,4.69-8.64,8.44-13.24,11.04l6.24.02c1.02,0,10.59-.12,11.54-.38.13-.05.25-.1.37-.17Z"/>
        <path d="M46.86,26.03c1.27,2.28.84,4.98-.03,7.35-1.37,3.69-4.24,7.75-7.86,9.49-1.66.8-3.5,1.08-5.28.54-1.28-.39-2.24-1.35-2.87-2.52-1.6-2.97-1.15-7.1-.16-10.24.62-2.01,1.49-3.84,2.63-5.63,3.04-4.8,7.42-8.61,12.6-10.99,1.93-.89,3.93-1.65,6.1-1.9-2.96,1-5.67,2.03-8.16,3.83-1.71,1.23-3.29,2.51-4.71,4.09-3.44,3.84-6.07,8.69-6.42,13.9-.11,1.65-.02,3.19.53,4.73.43,1.2,1.21,2.32,2.43,2.83,2.19.9,4.61.29,6.31-1.31,2.58-2.44,3.48-6.39,3.13-9.81-.08-.82-.35-1.58-.7-2.31-1.34-2.81-4.76-2.47-6.93-.97-1.39.81-2.12,2.11-3.21,3.42,1.04-2.57,3.18-4.63,5.6-5.88,1.09-.56,2.22-.78,3.42-.76,1.54.02,2.85.81,3.6,2.16Z"/>
        <path d="M31.1,20.43l-3.33,7.32-10.08,23.22-3.45.06,10.61-24.35c.25-.61.36-1.28.36-1.88,0-.67-.25-1.13-.67-1.44,1.63-.4,3.14-1,4.65-1.82.65-.36,1.28-.71,1.9-1.11Z"/>
      </g>
      <text class="cls-17" transform="translate(22.29 48.12)"><tspan class="cls-9"><tspan class="cls-10" x="0" y="0">O</tspan><tspan class="cls-11" x="2.02" y="0">L</tspan><tspan class="cls-15" x="3.47" y="0">D </tspan><tspan class="cls-21" x="6.03" y="0">A</tspan><tspan class="cls-19" x="7.78" y="0">C</tspan><tspan class="cls-18" x="9.65" y="0">HI</tspan><tspan class="cls-10" x="12.39" y="0">M</tspan><tspan class="cls-20" x="14.61" y="0">O</tspan><tspan class="cls-16" x="16.48" y="0">T</tspan><tspan class="cls-22" x="17.8" y="0">A</tspan><tspan class="cls-15" x="19.56" y="0">N</tspan></tspan><tspan class="cls-5" x="0" y="2.94">A</tspan><tspan class="cls-2" x="1.75" y="2.94">S</tspan><tspan class="cls-3" x="3.44" y="2.94">S</tspan><tspan class="cls-1" x="5.1" y="2.94">O</tspan><tspan class="cls-4" x="7.12" y="2.94">C</tspan><tspan class="cls-8" x="8.96" y="2.94">A</tspan><tspan class="cls-6" x="10.55" y="2.94">T</tspan><tspan class="cls-1" x="12.02" y="2.94">IO</tspan><tspan class="cls-7" x="14.82" y="2.94">N</tspan><tspan class="cls-14" x="16.68" y="2.94"> </tspan><tspan class="cls-12" x="17.34" y="2.94">2</tspan><tspan class="cls-13" x="19.02" y="2.94">016</tspan></text>
    </g>
  </g>
</svg>