<?xml version="1.0" encoding="UTF-8"?>
<svg id="Layer_2" data-name="Layer 2" xmlns="http://www.w3.org/2000/svg" viewBox="0 0 51.98 51.08">
  <g id="Layer_1-2" data-name="Layer 1">
    <g>
      <g>
        <path d="M29.79,0c-5.24,0-9.07,4.32-9.07,9.65s3.84,9.65,9.07,9.65,9.03-4.32,9.03-9.65S34.98,0,29.79,0ZM29.79,19.03c-3.16,0-5.36-4.22-5.36-9.38S26.62.27,29.79.27s5.32,4.22,5.32,9.38-2.2,9.38-5.32,9.38Z"/>
        <path d="M10.56,27.95v-.03.02s-.01-.02-.01-.02v.03h-5.28v6.01c0,1.04.29,2.05.84,2.92h0s.04.06.04.06h0c.36.56.82,1.04,1.36,1.44h0s0,0,0,0c.11.08.23.16.37.25l1.11.68.03.02h0s1.5.93,1.5.93v.02h.02s.02,0,.02,0v-.02l1.53-.94h0s1.11-.69,1.11-.69c.13-.08.25-.16.37-.25h0c.54-.4.99-.89,1.36-1.45h0s.04-.05.04-.05h0c.28-.44.49-.91.63-1.41.14-.49.22-1,.22-1.52v-6.01h-5.28ZM6.11,36.81c-.53-.86-.8-1.84-.8-2.85v-4.18h.8v7.03ZM7.51,38.33c-.54-.4-1-.89-1.36-1.46v-7.1h.59v5.45l.76.9v2.2ZM8.99,39.27l-1.09-.67c-.13-.08-.25-.16-.36-.24v-2.23l.76-.9h0v-5.46h.68v9.5ZM10.53,40.22l-1.5-.92v-9.52h.74v5.45l.75.89v.08s0-.02,0-.02v4.04ZM12.07,39.3l-1.5.92v-4.04.02s0-.08,0-.08l.75-.88h0v-5.46h.74v9.52ZM13.56,38.36c-.11.08-.23.16-.36.24l-1.09.67v-9.5h.68v5.45l.76.9v2.23ZM14.95,36.87c-.36.57-.82,1.06-1.36,1.46v-2.2l.76-.9h0v-5.46h.59v7.1ZM15.8,33.96c0,1.01-.28,1.99-.8,2.85v-7.03h.8v4.18Z"/>
        <path d="M22.68,21.65l-1.23,2.92H7.44l-7.44-.03,4.24-2.52,3.02-1.95c4.2-2.72,9.59-7,8.74-12.64-.15-.97-.55-1.9-1.23-2.58-.6-.58-1.4-.8-2.22-.88-2.28-.2-4.37.83-5.57,2.8-1.43,2.33-1.58,6.52,1.2,7.49.87.3,1.73.3,2.62.15.62-.1,1.05-.45,1.65-.82-1.18,2.15-4.42,3.59-6.64,2.27-.9-.55-1.4-1.5-1.55-2.52-.23-1.47.05-2.88.67-4.24,1.12-2.47,3.03-4.47,5.45-5.7,1.6-.82,3.35-1.05,5.09-.67.77.15,1.47.52,1.98,1.08,1.87,1.97,1.52,5.1.33,7.34-2.47,4.69-8.64,8.44-13.24,11.04l6.24.02c1.02,0,10.59-.12,11.54-.38.13-.05.25-.1.37-.17Z"/>
        <path d="M46.86,26.03c1.27,2.28.84,4.98-.03,7.35-1.37,3.69-4.24,7.75-7.86,9.49-1.66.8-3.5,1.08-5.28.54-1.28-.39-2.24-1.35-2.87-2.52-1.6-2.97-1.15-7.1-.16-10.24.62-2.01,1.49-3.84,2.63-5.63,3.04-4.8,7.42-8.61,12.6-10.99,1.93-.89,3.93-1.65,6.1-1.9-2.96,1-5.67,2.03-8.16,3.83-1.71,1.23-3.29,2.51-4.71,4.09-3.44,3.84-6.07,8.69-6.42,13.9-.11,1.65-.02,3.19.53,4.73.43,1.2,1.21,2.32,2.43,2.83,2.19.9,4.61.29,6.31-1.31,2.58-2.44,3.48-6.39,3.13-9.81-.08-.82-.35-1.58-.7-2.31-1.34-2.81-4.76-2.47-6.93-.97-1.39.81-2.12,2.11-3.21,3.42,1.04-2.57,3.18-4.63,5.6-5.88,1.09-.56,2.22-.78,3.42-.76,1.54.02,2.85.81,3.6,2.16Z"/>
        <path d="M31.1,20.43l-3.33,7.32-10.08,23.22-3.45.06,10.61-24.35c.25-.61.36-1.28.36-1.88,0-.67-.25-1.13-.67-1.44,1.63-.4,3.14-1,4.65-1.82.65-.36,1.28-.71,1.9-1.11Z"/>
      </g>
      <g>
        <path d="M23.21,48.15c-.12,0-.23-.02-.33-.06-.1-.04-.18-.1-.26-.18s-.13-.17-.17-.27c-.04-.1-.06-.21-.06-.33s.02-.23.06-.33c.04-.1.09-.19.17-.27.07-.08.16-.14.26-.18.1-.04.21-.06.33-.06s.23.02.33.06c.1.04.18.1.25.18.07.08.13.17.17.27.04.1.06.21.06.33s-.02.23-.06.33c-.04.1-.09.19-.17.27-.07.08-.16.14-.25.18-.1.04-.21.06-.33.06ZM23.21,47.88c.11,0,.21-.02.29-.07s.13-.12.17-.21c.04-.09.06-.19.06-.3s-.02-.21-.06-.3c-.04-.09-.1-.15-.17-.2-.08-.05-.17-.07-.29-.07s-.21.02-.29.07c-.08.05-.14.12-.17.2-.04.09-.06.19-.06.3s.02.21.06.3c.04.09.1.16.17.21s.17.07.29.07Z"/>
        <path d="M24.74,48.12h-.28v-1.64h.28v1.64ZM25.58,48.12h-1.02v-.24h1.02v.24Z"/>
        <path d="M26.19,48.12h-.28v-1.64h.28v1.64ZM26.54,48.12h-.53v-.24h.49c.11,0,.21-.02.29-.06.08-.04.14-.1.18-.18.04-.08.06-.19.06-.33s-.02-.25-.06-.33c-.04-.08-.1-.15-.18-.18s-.17-.06-.29-.06h-.49v-.24h.53c.17,0,.31.03.43.1.12.07.2.16.26.28.06.12.09.27.09.44s-.03.31-.09.44-.15.22-.26.28c-.11.07-.26.1-.43.1Z"/>
        <path d="M28.63,48.12h-.29l.64-1.64h.32l.64,1.64h-.31l-.41-1.1-.09-.3-.09.3-.42,1.1ZM29.57,47.71h-.91v-.24h.91v.24Z"/>
        <path d="M30.96,48.14c-.17,0-.31-.04-.43-.11-.12-.08-.21-.18-.27-.3-.06-.13-.09-.27-.09-.43s.03-.3.09-.43c.06-.13.15-.23.27-.3.12-.08.26-.11.43-.11.12,0,.23.02.33.06.09.04.18.1.24.17.07.08.12.17.16.27l-.24.18c-.02-.08-.05-.15-.09-.22-.04-.06-.09-.11-.16-.15-.07-.04-.15-.05-.24-.05-.11,0-.21.02-.28.07-.07.05-.13.12-.16.2-.04.09-.05.19-.05.3s.02.21.05.3c.04.09.09.16.16.21.07.05.17.07.28.07.09,0,.17-.02.24-.05.07-.04.12-.09.16-.15.04-.06.07-.14.09-.22l.24.18c-.04.11-.09.2-.16.27-.07.08-.15.13-.24.17-.09.04-.2.06-.33.06Z"/>
        <path d="M32.38,48.12h-.28v-1.64h.28v1.64ZM33.29,47.41h-1.08v-.24h1.08v.24ZM33.44,48.12h-.28v-1.64h.28v1.64Z"/>
        <path d="M34.28,48.12h-.28v-1.64h.28v1.64Z"/>
        <path d="M35.12,48.12h-.28v-1.64h.34l.35.72.16.42.16-.42.35-.72h.34v1.64h-.28v-.77l.03-.54-.19.47-.28.56h-.28l-.28-.56-.19-.47.04.54v.77Z"/>
        <path d="M37.82,48.15c-.12,0-.23-.02-.33-.06-.1-.04-.18-.1-.26-.18s-.13-.17-.17-.27c-.04-.1-.06-.21-.06-.33s.02-.23.06-.33c.04-.1.09-.19.17-.27.07-.08.16-.14.26-.18.1-.04.21-.06.33-.06s.23.02.33.06c.1.04.18.1.25.18.07.08.13.17.17.27.04.1.06.21.06.33s-.02.23-.06.33c-.04.1-.09.19-.17.27-.07.08-.16.14-.25.18-.1.04-.21.06-.33.06ZM37.82,47.88c.11,0,.21-.02.29-.07s.13-.12.17-.21c.04-.09.06-.19.06-.3s-.02-.21-.06-.3c-.04-.09-.1-.15-.17-.2-.08-.05-.17-.07-.29-.07s-.21.02-.29.07c-.08.05-.14.12-.17.2-.04.09-.06.19-.06.3s.02.21.06.3c.04.09.1.16.17.21s.17.07.29.07Z"/>
        <path d="M40.09,46.73h-1.28v-.24h1.28v.24ZM39.59,48.12h-.28v-1.64h.28v1.64Z"/>
        <path d="M40.4,48.12h-.29l.64-1.64h.32l.64,1.64h-.31l-.41-1.1-.09-.3-.09.3-.42,1.1ZM41.34,47.71h-.91v-.24h.91v.24Z"/>
        <path d="M42.29,48.12h-.28v-1.64h.26l.66.95.16.26-.02-.31v-.9h.28v1.64h-.25l-.68-.97-.15-.23.02.3v.9Z"/>
        <path d="M22.59,51.06h-.29l.64-1.64h.32l.64,1.64h-.31l-.41-1.1-.09-.3-.09.3-.42,1.1ZM23.54,50.65h-.91v-.24h.91v.24Z"/>
        <path d="M24.87,51.08c-.1,0-.2-.01-.3-.04s-.18-.07-.25-.12c-.07-.06-.13-.13-.18-.22l.2-.2c.03.08.07.14.13.19.06.05.12.08.2.11.07.02.14.03.21.03.06,0,.11,0,.15-.02.04-.01.08-.04.11-.07.03-.03.04-.07.04-.12s-.01-.09-.04-.12c-.03-.03-.07-.06-.12-.07-.05-.02-.11-.04-.18-.05l-.16-.03c-.06-.01-.11-.03-.17-.05-.06-.02-.11-.05-.16-.08s-.08-.08-.11-.13-.04-.12-.04-.2c0-.1.03-.19.08-.26.05-.07.12-.12.21-.16.09-.04.18-.05.29-.05.15,0,.28.03.4.09.11.06.2.15.26.26l-.21.2c-.05-.1-.11-.18-.19-.22s-.17-.07-.27-.07c-.05,0-.1,0-.14.02-.04.02-.07.04-.1.07s-.03.07-.03.11c0,.07.03.12.08.16.05.03.12.06.21.08l.18.04c.06.02.13.04.19.06.06.02.11.05.16.09.05.04.08.08.11.13.03.05.04.12.04.2,0,.1-.03.18-.08.25-.05.07-.12.12-.21.16-.09.04-.19.06-.3.06Z"/>
        <path d="M26.56,51.08c-.1,0-.2-.01-.3-.04s-.18-.07-.25-.12c-.07-.06-.13-.13-.18-.22l.2-.2c.03.08.07.14.13.19.06.05.12.08.2.11.07.02.14.03.21.03.06,0,.11,0,.15-.02.04-.01.08-.04.11-.07.03-.03.04-.07.04-.12s-.01-.09-.04-.12c-.03-.03-.07-.06-.12-.07-.05-.02-.11-.04-.18-.05l-.16-.03c-.06-.01-.11-.03-.17-.05-.06-.02-.11-.05-.16-.08s-.08-.08-.11-.13-.04-.12-.04-.2c0-.1.03-.19.08-.26.05-.07.12-.12.21-.16.09-.04.18-.05.29-.05.15,0,.28.03.4.09.11.06.2.15.26.26l-.21.2c-.05-.1-.11-.18-.19-.22s-.17-.07-.27-.07c-.05,0-.1,0-.14.02-.04.02-.07.04-.1.07s-.03.07-.03.11c0,.07.03.12.08.16.05.03.12.06.21.08l.18.04c.06.02.13.04.19.06.06.02.11.05.16.09.05.04.08.08.11.13.03.05.04.12.04.2,0,.1-.03.18-.08.25-.05.07-.12.12-.21.16-.09.04-.19.06-.3.06Z"/>
        <path d="M28.31,51.08c-.12,0-.23-.02-.33-.06-.1-.04-.18-.1-.26-.18s-.13-.17-.17-.27c-.04-.1-.06-.21-.06-.33s.02-.23.06-.33c.04-.1.09-.19.17-.27.07-.08.16-.14.26-.18.1-.04.21-.06.33-.06s.23.02.33.06c.1.04.18.1.25.18.07.08.13.17.17.27.04.1.06.21.06.33s-.02.23-.06.33c-.04.1-.09.19-.17.27-.07.08-.16.14-.25.18-.1.04-.21.06-.33.06ZM28.31,50.82c.11,0,.21-.02.29-.07s.13-.12.17-.21c.04-.09.06-.19.06-.3s-.02-.21-.06-.3c-.04-.09-.1-.15-.17-.2-.08-.05-.17-.07-.29-.07s-.21.02-.29.07c-.08.05-.14.12-.17.2-.04.09-.06.19-.06.3s.02.21.06.3c.04.09.1.16.17.21s.17.07.29.07Z"/>
        <path d="M30.31,51.08c-.17,0-.31-.04-.43-.11-.12-.08-.21-.18-.27-.3-.06-.13-.09-.27-.09-.43s.03-.3.09-.43c.06-.13.15-.23.27-.3.12-.08.26-.11.43-.11.12,0,.23.02.33.06.09.04.18.1.24.17.07.08.12.17.16.27l-.24.18c-.02-.08-.05-.15-.09-.22-.04-.06-.09-.11-.16-.15-.07-.04-.15-.05-.24-.05-.11,0-.21.02-.28.07-.07.05-.13.12-.16.2-.04.09-.05.19-.05.3s.02.21.05.3c.04.09.09.16.16.21.07.05.17.07.28.07.09,0,.17-.02.24-.05.07-.04.12-.09.16-.15.04-.06.07-.14.09-.22l.24.18c-.04.11-.09.2-.16.27-.07.08-.15.13-.24.17-.09.04-.2.06-.33.06Z"/>
        <path d="M31.56,51.06h-.29l.64-1.64h.32l.64,1.64h-.31l-.41-1.1-.09-.3-.09.3-.42,1.1ZM32.51,50.65h-.91v-.24h.91v.24Z"/>
        <path d="M34.16,49.67h-1.28v-.24h1.28v.24ZM33.66,51.06h-.28v-1.64h.28v1.64Z"/>
        <path d="M34.75,51.06h-.28v-1.64h.28v1.64Z"/>
        <path d="M36.01,51.08c-.12,0-.23-.02-.33-.06-.1-.04-.18-.1-.26-.18s-.13-.17-.17-.27c-.04-.1-.06-.21-.06-.33s.02-.23.06-.33c.04-.1.09-.19.17-.27.07-.08.16-.14.26-.18.1-.04.21-.06.33-.06s.23.02.33.06c.1.04.18.1.25.18.07.08.13.17.17.27.04.1.06.21.06.33s-.02.23-.06.33c-.04.1-.09.19-.17.27-.07.08-.16.14-.25.18-.1.04-.21.06-.33.06ZM36.01,50.82c.11,0,.21-.02.29-.07s.13-.12.17-.21c.04-.09.06-.19.06-.3s-.02-.21-.06-.3c-.04-.09-.1-.15-.17-.2-.08-.05-.17-.07-.29-.07s-.21.02-.29.07c-.08.05-.14.12-.17.2-.04.09-.06.19-.06.3s.02.21.06.3c.04.09.1.16.17.21s.17.07.29.07Z"/>
        <path d="M37.55,51.06h-.28v-1.64h.26l.66.95.16.26-.02-.31v-.9h.28v1.64h-.25l-.68-.97-.15-.23.02.3v.9Z"/>
        <path d="M41.05,51.06h-1.24v-.26l.61-.56s.08-.08.11-.12.05-.07.07-.1.03-.07.03-.11c0-.03,0-.06-.02-.09-.02-.03-.04-.05-.07-.06-.03-.02-.07-.02-.11-.02-.07,0-.13.01-.18.04-.05.03-.1.08-.13.14-.03.06-.05.15-.06.25l-.27-.22c0-.11.04-.21.1-.29s.14-.15.24-.19c.1-.05.21-.07.33-.07.12,0,.21.02.29.06.08.04.14.1.18.17.04.07.06.16.06.26,0,.06-.01.12-.03.18s-.05.11-.09.16c-.04.05-.08.1-.13.14-.05.04-.1.08-.15.12l-.2.16-.21.13.31-.04h.57v.31Z"/>
        <path d="M42.13,51.08c-.16,0-.29-.04-.4-.11-.11-.07-.19-.17-.25-.3-.06-.13-.08-.27-.08-.44s.03-.31.08-.43c.06-.13.14-.23.25-.3.11-.07.24-.11.4-.11s.29.04.4.11c.11.07.19.17.25.3.06.13.08.27.08.43s-.03.31-.08.44c-.06.13-.14.23-.25.3-.11.07-.24.11-.4.11ZM42.13,50.74c.08,0,.15-.02.21-.06.05-.04.09-.1.11-.18.02-.08.04-.17.04-.27s-.01-.19-.04-.27c-.02-.08-.06-.13-.11-.17-.05-.04-.12-.06-.21-.06s-.15.02-.21.06c-.05.04-.09.1-.11.17-.02.07-.04.16-.04.27s.01.19.04.27.06.14.11.18c.05.04.12.06.21.06Z"/>
        <path d="M43.86,51.06h-.35v-1.23h-.31v-.27s.09,0,.13-.01.08-.03.11-.05.07-.05.09-.09h.32v1.64Z"/>
        <path d="M44.96,51.08c-.11,0-.21-.02-.29-.05s-.15-.09-.21-.15c-.06-.07-.1-.15-.12-.26-.03-.1-.04-.22-.04-.36v-.03c0-.17.03-.32.08-.45.05-.12.13-.22.24-.28s.24-.1.4-.1c.12,0,.22.02.31.06s.17.1.22.16l-.18.33c-.05-.07-.1-.11-.16-.15-.06-.03-.13-.05-.2-.05-.05,0-.09,0-.13.02-.04.01-.07.04-.1.07-.03.03-.05.08-.07.14-.02.06-.02.13-.02.22v.13c.01-.07.04-.13.08-.17.04-.05.08-.09.14-.11.06-.03.13-.04.2-.04.11,0,.2.02.27.07s.12.1.16.18c.03.08.05.17.05.26,0,.11-.03.21-.08.3-.05.09-.13.15-.22.2s-.2.07-.33.07ZM44.95,50.75c.06,0,.1-.01.14-.03.04-.02.07-.05.09-.09.02-.04.03-.08.03-.13s0-.1-.03-.13c-.02-.04-.05-.07-.08-.09-.04-.02-.09-.03-.15-.03-.06,0-.1.01-.14.03-.04.02-.07.05-.09.09-.02.04-.03.08-.03.13,0,.09.02.16.07.2s.11.07.19.07Z"/>
      </g>
    </g>
  </g>
</svg>